<?xml version="1.0" encoding="utf-8"?>
<!-- Generator: Adobe Illustrator 22.0.1, SVG Export Plug-In . SVG Version: 6.00 Build 0)  -->
<svg version="1.1" id="Layer_1" xmlns="http://www.w3.org/2000/svg" xmlns:xlink="http://www.w3.org/1999/xlink" x="0px" y="0px"
	 viewBox="0 0 318.5 113.6" style="enable-background:new 0 0 318.5 113.6;" xml:space="preserve">
<style type="text/css">
	.st0{fill:#1C4B6E;}
	.st1{font-family:'TimesNewRomanPSMT';}
	.st2{font-size:31.6143px;}
</style>
<text transform="matrix(0.9927 0 0 1 0 103.9314)" class="st0 st1 st2">ГР</text>
<text transform="matrix(0.9927 0 0 1 34.8203 103.9314)" class="st0 st1 st2">УППА</text>
<text transform="matrix(0.9927 0 0 1 132.8672 103.9314)" class="st0 st1 st2">К</text>
<text transform="matrix(0.9927 0 0 1 153.0391 103.9314)" class="st0 st1 st2">ОМПАНИЙ</text>
<polygon class="st0" points="45.4,0 45.4,23.1 45.2,23.1 45.2,23.2 28.3,23.2 28.3,0 2.6,0 2.6,67.3 28.3,67.3 28.3,41.9 45.2,41.9 
	45.2,67.3 71.2,67.3 71.2,0 45.4,0 "/>
<path class="st0" d="M286.2,52.5l5.3,14.8h27L294.6,0h-34.8l-23.4,66.7l-24.5-35.5L234.4,0h-29.3l-15.9,26.7V0h-25.9v67.3h25.8v-29
	l17.3,29H262l4.5-14.8H286.2L286.2,52.5z M276.7,16L276.7,16l6.8,20.9l-13.6-0.1L276.7,16L276.7,16z"/>
<polygon class="st0" points="124,0 106.3,38.4 106.3,0 80.7,0 80.7,67.3 110.4,67.3 128,29.1 128,67.3 153.8,67.3 153.8,0 124,0 "/>
</svg>
